<?xml version="1.0" encoding="UTF-8"?>
<svg id="Layer_1" xmlns="http://www.w3.org/2000/svg" version="1.1" viewBox="0 0 24 24">
  <!-- Generator: Adobe Illustrator 30.0.0, SVG Export Plug-In . SVG Version: 2.1.1 Build 123)  -->
  <defs>
    <style>
      .st0 {
        fill: none;
        stroke-linecap: round;
        stroke-linejoin: round;
        stroke-width: 1.8px;
      }

      .st0, .st1, .st2 {
        stroke: #e5675c;
      }

      .st1 {
        stroke-width: .2px;
      }

      .st1, .st2 {
        fill: #e5675c;
        fill-rule: evenodd;
        stroke-miterlimit: 10;
      }

      .st2 {
        stroke-width: .5px;
      }
    </style>
  </defs>
  <path class="st0" d="M17.9,8.2c2.1,0,3.9,1.4,3.8,3.1v6.1c-.1,1.7-1.9,3-4,3"/>
  <path class="st1" d="M8.2,12.9c-.4,0-.7.3-.8.7v5.5c0,.4.4.7.8.7s.7-.3.8-.7v-5.5c0-.4-.4-.7-.8-.7Z"/>
  <path class="st2" d="M19.3,5.1c0-.4-.2-.9-.4-1.2-.2-.3-.5-.7-.8-.9-.5-.3-1.1-.5-1.7-.5-.3-.6-.9-1.1-1.5-1.5-.4-.2-.9-.4-1.3-.5h-1.4c-.4,0-.7.2-1,.5-.4-.2-.7-.4-1.2-.5h-1.5c-.5.1-1,.4-1.4.7h0c-.2.2-.4.4-.5.6-.8-.3-1.7-.4-2.5-.1-.6.2-1.1.5-1.6,1-.4.5-.7,1.1-.8,1.7-.2,1.1.2,2.3,1.5,3.4v13.8c0,1,.8,1.9,1.9,1.9h11c.5,0,1-.2,1.3-.5.4-.3.5-.8.5-1.3v-11.7h0v-2c1.1-.8,1.5-1.8,1.4-2.8h0ZM16.5,21.6v.3c0,.2-.3.3-.6.3H5c-.3,0-.5-.2-.5-.5v-13.3h4.8c.6,0,.6.2.7.5,0,.4.2.7.4,1.1.4.5.9.9,1.6,1.1.5.1,1,.1,1.5,0,1.2-.3,2-1.4,2-2.6h1.1v13.1h-.1ZM17,7.1h-1.6c-.8,0-1.1.4-1.1,1.2,0,1.7-2.2,2-2.9.8-.5-.8,0-2-2.1-2h-5c-3.7-2.6.4-6.3,2.9-3.5-.2-2.4,3.2-2.8,3.9-1,1.1-1.9,4-1.3,4.6,1.1,1.7-.9,3.8,1.7,1.2,3.3h.1Z"/>
  <path class="st1" d="M12.8,12.9c-.4,0-.8.2-.9.7v5.5c0,.4.3.6.7.7.4,0,.8-.3.9-.7v-5.5c0-.4-.3-.6-.7-.7Z"/>
</svg>