<?xml version="1.0" encoding="UTF-8"?>
<svg id="Layer_1" xmlns="http://www.w3.org/2000/svg" version="1.1" viewBox="0 0 24 24">
  <!-- Generator: Adobe Illustrator 30.0.0, SVG Export Plug-In . SVG Version: 2.1.1 Build 123)  -->
  <defs>
    <style>
      .st0 {
        fill: none;
        stroke: #7b7cd1;
        stroke-linecap: round;
        stroke-linejoin: round;
        stroke-width: 2px;
      }
    </style>
  </defs>
  <path class="st0" d="M12,1.2c1.1,3.6,3,8.1,6.3,12.7,1.5,2.2,3.1,4,4.5,5.5-1.4,1-5.5,3.5-11.3,3.3-5.2-.1-8.9-2.3-10.4-3.3,1.8-2.3,3.7-5,5.6-8.1,2.2-3.6,3.9-7.1,5.2-10.1Z"/>
  <path class="st0" d="M5.7,21.5c1.2-1.4,2.6-3.3,3.9-5.7,1.2-2.3,2-4.4,2.4-6.1.4,1.7,1.1,3.8,2.2,6.1,1.2,2.4,2.6,4.3,3.8,5.6"/>
</svg>